<?xml version="1.0" encoding="UTF-8"?>
<!DOCTYPE svg PUBLIC "-//W3C//DTD SVG 1.1//EN" "http://www.w3.org/Graphics/SVG/1.1/DTD/svg11.dtd">
<svg xmlns="http://www.w3.org/2000/svg" version="1.1" width="515px" height="456px" style="shape-rendering:geometricPrecision; text-rendering:geometricPrecision; image-rendering:optimizeQuality; fill-rule:evenodd; clip-rule:evenodd" xmlns:xlink="http://www.w3.org/1999/xlink">
<g><path style="opacity:1" fill="#00ff88" d="M 362.5,12.5 C 364.337,12.6395 364.67,13.3061 363.5,14.5C 362.702,14.0431 362.369,13.3764 362.5,12.5 Z"/></g>
<g><path style="opacity:1" fill="#00ff88" d="M 388.5,96.5 C 385.363,100.485 382.363,104.652 379.5,109C 377.833,109.667 376.167,109.667 374.5,109C 377.876,103.747 381.376,98.5802 385,93.5C 386.75,90.7536 387.75,87.7536 388,84.5C 389.868,65.4401 388.034,46.7735 382.5,28.5C 360.196,55.1418 337.863,81.8085 315.5,108.5C 313.579,109.641 311.579,109.808 309.5,109C 315.668,101.334 322.002,93.834 328.5,86.5C 347.173,64.1611 365.84,41.8278 384.5,19.5C 391.68,41.2733 394.18,63.6066 392,86.5C 391.53,90.1154 390.363,93.4487 388.5,96.5 Z"/></g>
<g><path style="opacity:1" fill="#00ff88" d="M 194.5,85.5 C 200.597,93.44 206.93,101.273 213.5,109C 211.231,109.758 209.064,109.591 207,108.5C 184.992,81.6626 162.825,54.9959 140.5,28.5C 136.17,42.3049 134.17,56.4716 134.5,71C 134.399,77.2447 134.899,83.4114 136,89.5C 139.792,96.2545 143.959,102.755 148.5,109C 146.402,109.678 144.402,109.511 142.5,108.5C 138.424,102.019 134.59,95.3526 131,88.5C 129.699,70.3582 130.699,52.3582 134,34.5C 134.893,29.5806 136.393,24.9139 138.5,20.5C 157.189,42.1862 175.856,63.8529 194.5,85.5 Z"/></g>
<g><path style="opacity:1" fill="transparent" d="M 194.5,85.5 C 194.36,83.8762 195.027,82.7096 196.5,82C 195.833,80.6667 194.833,79.6667 193.5,79C 195.112,78.2797 196.612,78.4464 198,79.5C 198.464,78.9056 198.631,78.2389 198.5,77.5C 204.5,75.5 210.5,73.5 216.5,71.5C 217.376,71.6309 218.043,71.2975 218.5,70.5C 215.982,68.8443 215.982,67.5109 218.5,66.5C 220.904,69.6311 223.071,72.9644 225,76.5C 227.008,73.7051 226.842,71.0384 224.5,68.5C 225.874,68.2079 227.207,67.8746 228.5,67.5C 229.15,67.8039 229.817,68.1373 230.5,68.5C 240.632,65.0503 250.965,62.3837 261.5,60.5C 277.786,64.2357 293.786,68.5691 309.5,73.5C 308.253,76.1754 309.253,78.0088 312.5,79C 311.944,79.3826 311.611,79.8826 311.5,80.5C 294.692,76.0895 277.858,71.7562 261,67.5C 251.028,69.6572 241.195,72.3239 231.5,75.5C 230.96,76.7481 230.293,77.9148 229.5,79C 240.143,76.8409 250.809,74.3409 261.5,71.5C 281.051,77.1411 300.718,82.1411 320.5,86.5C 320.783,87.2891 321.283,87.9558 322,88.5C 323.977,85.6884 326.144,83.0217 328.5,80.5C 328.308,82.4546 328.308,84.4546 328.5,86.5C 322.002,93.834 315.668,101.334 309.5,109C 311.579,109.808 313.579,109.641 315.5,108.5C 337.863,81.8085 360.196,55.1418 382.5,28.5C 388.034,46.7735 389.868,65.4401 388,84.5C 387.75,87.7536 386.75,90.7536 385,93.5C 381.376,98.5802 377.876,103.747 374.5,109C 376.167,109.667 377.833,109.667 379.5,109C 382.363,104.652 385.363,100.485 388.5,96.5C 388.678,97.6948 389.011,98.8615 389.5,100C 387.159,102.549 387.826,103.049 391.5,101.5C 391.369,102.376 391.702,103.043 392.5,103.5C 397.167,105.5 401.833,107.5 406.5,109.5C 407.495,115.128 407.829,120.794 407.5,126.5C 405.989,128.476 405.156,130.809 405,133.5C 404.774,130.905 404.274,128.405 403.5,126C 406.42,123.066 405.753,121.566 401.5,121.5C 401.657,122.873 401.49,124.207 401,125.5C 399.667,125.5 398.333,125.5 397,125.5C 396.167,126.333 395.333,127.167 394.5,128C 394.539,130.297 394.872,132.63 395.5,135C 394.874,135.75 394.374,136.584 394,137.5C 393.817,134.635 393.317,131.969 392.5,129.5C 389.426,129.127 386.426,128.461 383.5,127.5C 383.366,129.292 383.699,130.958 384.5,132.5C 386.55,138.215 387.05,144.215 386,150.5C 385.5,150 385,149.5 384.5,149C 384.966,147.701 384.966,146.201 384.5,144.5C 383.178,144.67 382.011,144.337 381,143.5C 380.105,145.804 379.271,148.138 378.5,150.5C 377.818,149.757 377.151,149.091 376.5,148.5C 376.828,137.986 376.494,127.653 375.5,117.5C 345.498,117.333 315.498,117.5 285.5,118C 279.699,124.802 273.532,131.302 267,137.5C 266.5,154.497 266.333,171.497 266.5,188.5C 273.175,188.334 279.842,188.5 286.5,189C 289,191.5 291.5,194 294,196.5C 294.333,203.167 294.667,209.833 295,216.5C 310.667,229.833 326.333,243.167 342,256.5C 342.5,266.161 342.666,275.828 342.5,285.5C 328.833,285.5 315.167,285.5 301.5,285.5C 301.827,275.652 301.494,265.986 300.5,256.5C 289.346,255.505 278.012,255.172 266.5,255.5C 265.844,277.526 266.511,299.192 268.5,320.5C 276.323,321.329 284.323,321.829 292.5,322C 293.357,322.689 294.023,323.522 294.5,324.5C 292.314,325.221 290.147,325.887 288,326.5C 287.667,326.167 287.333,325.833 287,325.5C 286.333,326.5 286.333,327.5 287,328.5C 288.596,329.048 289.763,328.382 290.5,326.5C 295.787,332.795 301.121,339.128 306.5,345.5C 303.85,348.651 301.016,351.651 298,354.5C 288.223,345.725 278.723,336.558 269.5,327C 268.056,326.219 266.723,326.386 265.5,327.5C 275.167,337.5 284.833,347.5 294.5,357.5C 284.69,367.48 273.857,376.147 262,383.5C 249.684,376.846 238.85,368.346 229.5,358C 238.624,347.875 248.124,338.042 258,328.5C 258.925,325.866 258.091,324.699 255.5,325C 245.653,335.014 235.653,344.848 225.5,354.5C 222.084,351.75 219.084,348.75 216.5,345.5C 221.083,339.412 226.25,333.745 232,328.5C 232.167,328.167 232.333,327.833 232.5,327.5C 230.484,326.306 228.484,326.306 226.5,327.5C 225.27,325.703 224.604,323.703 224.5,321.5C 228.042,321.813 231.375,321.479 234.5,320.5C 242.106,314.728 248.94,308.061 255,300.5C 255.5,280.503 255.667,260.503 255.5,240.5C 248.825,240.666 242.158,240.5 235.5,240C 233,237.5 230.5,235 228,232.5C 227.333,220.5 227.333,208.5 228,196.5C 230.5,194 233,191.5 235.5,189C 242.158,188.5 248.825,188.334 255.5,188.5C 255.667,171.163 255.5,153.83 255,136.5C 248.631,130.298 242.464,123.965 236.5,117.5C 215.006,116.503 193.34,116.169 171.5,116.5C 162.325,115.833 152.991,115.167 143.5,114.5C 144.755,112.22 146.755,111.053 149.5,111C 146.639,111.03 144.305,110.197 142.5,108.5C 144.402,109.511 146.402,109.678 148.5,109C 143.959,102.755 139.792,96.2545 136,89.5C 134.899,83.4114 134.399,77.2447 134.5,71C 134.17,56.4716 136.17,42.3049 140.5,28.5C 162.825,54.9959 184.992,81.6626 207,108.5C 209.064,109.591 211.231,109.758 213.5,109C 206.93,101.273 200.597,93.44 194.5,85.5 Z"/></g>
<g><path style="opacity:1" fill="#00ff88" d="M 217.5,50.5 C 218.5,50.5 219.5,50.5 220.5,50.5C 220.5,51.8333 220.5,53.1667 220.5,54.5C 219.5,54.5 218.5,54.5 217.5,54.5C 217.5,53.1667 217.5,51.8333 217.5,50.5 Z"/></g>
<g><path style="opacity:1" fill="#00ff88" d="M 196.5,39.5 C 197.5,39.5 198.5,39.5 199.5,39.5C 199.5,40.5 199.5,41.5 199.5,42.5C 198.5,42.5 197.5,42.5 196.5,42.5C 196.5,41.5 196.5,40.5 196.5,39.5 Z"/></g>
<g><path style="opacity:1" fill="#00ff88" d="M 188.5,57.5 C 190.5,57.5 192.5,57.5 194.5,57.5C 194.5,59.5 194.5,61.5 194.5,63.5C 192.5,63.5 190.5,63.5 188.5,63.5C 188.5,61.5 188.5,59.5 188.5,57.5 Z"/></g>
<g><path style="opacity:1" fill="#00ff88" d="M 309.5,73.5 C 293.786,68.5691 277.786,64.2357 261.5,60.5C 250.965,62.3837 240.632,65.0503 230.5,68.5C 229.817,68.1373 229.15,67.8039 228.5,67.5C 228.33,66.1779 228.663,65.0113 229.5,64C 239.937,60.9324 250.437,58.0991 261,55.5C 283.915,61.4378 306.748,67.7711 329.5,74.5C 329.038,76.2906 327.871,77.2906 326,77.5C 320.511,76.058 315.011,74.7247 309.5,73.5 Z"/></g>
<g><path style="opacity:1" fill="#00ff88" d="M 377.5,43.5 C 378.765,44.5145 379.431,46.0145 379.5,48C 381.305,60.7838 381.805,73.6172 381,86.5C 376.912,94.3474 372.079,101.681 366.5,108.5C 364.926,109.631 363.259,109.798 361.5,109C 366.79,101.587 371.957,94.087 377,86.5C 377.667,77.5 377.667,68.5 377,59.5C 376.808,57.4233 376.308,55.4233 375.5,53.5C 360.356,72.4784 345.023,91.3117 329.5,110C 327.741,110.798 326.074,110.631 324.5,109.5C 342.973,88.0399 360.64,66.0399 377.5,43.5 Z"/></g>
<g><path style="opacity:1" fill="#00ff88" d="M 224.5,68.5 C 226.842,71.0384 227.008,73.7051 225,76.5C 223.071,72.9644 220.904,69.6311 218.5,66.5C 217.972,65.2794 217.305,64.1127 216.5,63C 217.025,62.3076 217.692,61.8076 218.5,61.5C 220.735,63.6381 222.735,65.9714 224.5,68.5 Z"/></g>
<g><path style="opacity:1" fill="#00ff88" d="M 216.5,71.5 C 210.5,73.5 204.5,75.5 198.5,77.5C 196.042,77.7725 194.375,76.7725 193.5,74.5C 199.921,72.2692 206.421,70.2692 213,68.5C 214.908,68.7151 216.074,69.7151 216.5,71.5 Z"/></g>
<g><path style="opacity:1" fill="#00ff88" d="M 311.5,80.5 C 314.422,81.6493 317.422,82.6493 320.5,83.5C 321.562,84.4246 321.562,85.4246 320.5,86.5C 300.718,82.1411 281.051,77.1411 261.5,71.5C 250.809,74.3409 240.143,76.8409 229.5,79C 230.293,77.9148 230.96,76.7481 231.5,75.5C 241.195,72.3239 251.028,69.6572 261,67.5C 277.858,71.7562 294.692,76.0895 311.5,80.5 Z"/></g>
<g><path style="opacity:1" fill="#00ff88" d="M 216.5,78.5 C 218.722,78.178 220.556,78.8446 222,80.5C 222.456,81.7441 221.956,82.5774 220.5,83C 215.141,83.871 209.975,85.371 205,87.5C 203.378,87.0459 202.212,86.0459 201.5,84.5C 206.446,82.1875 211.446,80.1875 216.5,78.5 Z"/></g>
<g><path style="opacity:1" fill="#00ff88" d="M 290.5,83.5 C 292.337,83.6395 292.67,84.3061 291.5,85.5C 290.702,85.0431 290.369,84.3764 290.5,83.5 Z"/></g>
<g><path style="opacity:1" fill="#00ff88" d="M 143.5,43.5 C 144.496,43.4142 145.329,43.7476 146,44.5C 162.927,66.0162 180.093,87.3495 197.5,108.5C 195.051,109.91 192.884,109.576 191,107.5C 176.74,89.3171 162.24,71.3171 147.5,53.5C 145.855,64.1174 145.355,74.7841 146,85.5C 151.167,93.3333 156.333,101.167 161.5,109C 158.113,109.81 155.613,108.644 154,105.5C 149.75,99.3355 145.75,93.0021 142,86.5C 141.192,72.1148 141.692,57.7815 143.5,43.5 Z"/></g>
<g><path style="opacity:1" fill="#00ff88" d="M 89.5,91.5 C 90.5,91.5 91.5,91.5 92.5,91.5C 92.5,92.5 92.5,93.5 92.5,94.5C 91.5,94.5 90.5,94.5 89.5,94.5C 89.5,93.5 89.5,92.5 89.5,91.5 Z"/></g>
<g><path style="opacity:1" fill="#00ff88" d="M 107.5,94.5 C 110.957,94.6672 111.29,95.6672 108.5,97.5C 107.614,96.675 107.281,95.675 107.5,94.5 Z"/></g>
<g><path style="opacity:1" fill="#00ff88" d="M 77.5,94.5 C 79.5,94.5 81.5,94.5 83.5,94.5C 83.5,96.5 83.5,98.5 83.5,100.5C 81.5,100.5 79.5,100.5 77.5,100.5C 77.5,98.5 77.5,96.5 77.5,94.5 Z"/></g>
<g><path style="opacity:1" fill="#00ff88" d="M 166.5,98.5 C 168.337,98.6395 168.67,99.3061 167.5,100.5C 166.702,100.043 166.369,99.3764 166.5,98.5 Z"/></g>
<g><path style="opacity:1" fill="#00ff88" d="M 256.5,91.5 C 273.155,94.0803 289.488,98.0803 305.5,103.5C 304.788,105.046 303.622,106.046 302,106.5C 288.331,102.832 274.664,99.1657 261,95.5C 247.564,99.3548 234.064,103.021 220.5,106.5C 218.085,106.281 217.085,104.948 217.5,102.5C 230.732,99.2785 243.732,95.6118 256.5,91.5 Z"/></g>
<g><path style="opacity:1" fill="#00ff88" d="M 126.5,99.5 C 129.114,99.2771 130.781,100.444 131.5,103C 127.016,104.743 122.683,106.743 118.5,109C 116.19,109.497 113.857,109.663 111.5,109.5C 111.281,108.325 111.614,107.325 112.5,106.5C 117.271,104.147 121.937,101.814 126.5,99.5 Z"/></g>
<g><path style="opacity:1" fill="#00ff88" d="M 389.5,109.5 C 391.337,109.639 391.67,110.306 390.5,111.5C 389.702,111.043 389.369,110.376 389.5,109.5 Z"/></g>
<g><path style="opacity:1" fill="#00ff88" d="M 258.5,103.5 C 267.111,103.592 269.944,107.592 267,115.5C 266,116.167 265,116.833 264,117.5C 263.667,122.167 263.333,126.833 263,131.5C 262,132.833 261,132.833 260,131.5C 259.667,126.833 259.333,122.167 259,117.5C 253.23,113.122 253.063,108.455 258.5,103.5 Z"/></g>
<g><path style="opacity:1" fill="transparent" d="M 259.5,108.5 C 261.167,108.5 262.833,108.5 264.5,108.5C 264.985,113.159 263.152,114.492 259,112.5C 258.421,111.072 258.588,109.738 259.5,108.5 Z"/></g>
<g><path style="opacity:1" fill="#00ff88" d="M 393.5,113.5 C 394.833,113.5 396.167,113.5 397.5,113.5C 397.5,115.167 397.5,116.833 397.5,118.5C 396.167,118.5 394.833,118.5 393.5,118.5C 393.5,116.833 393.5,115.167 393.5,113.5 Z"/></g>
<g><path style="opacity:1" fill="#00ff88" d="M 171.5,116.5 C 193.34,116.169 215.006,116.503 236.5,117.5C 192.33,117.168 148.33,117.501 104.5,118.5C 103.711,118.217 103.044,117.717 102.5,117C 125.498,116.5 148.498,116.333 171.5,116.5 Z"/></g>
<g><path style="opacity:1" fill="#00ff88" d="M 236.5,117.5 C 242.464,123.965 248.631,130.298 255,136.5C 255.5,153.83 255.667,171.163 255.5,188.5C 248.825,188.334 242.158,188.5 235.5,189C 233,191.5 230.5,194 228,196.5C 227.333,208.5 227.333,220.5 228,232.5C 230.5,235 233,237.5 235.5,240C 242.158,240.5 248.825,240.666 255.5,240.5C 255.667,260.503 255.5,280.503 255,300.5C 248.94,308.061 242.106,314.728 234.5,320.5C 205.167,320.5 175.833,320.5 146.5,320.5C 146.5,267.833 146.5,215.167 146.5,162.5C 157.5,162.5 168.5,162.5 179.5,162.5C 179.5,174.167 179.5,185.833 179.5,197.5C 191.012,197.828 202.346,197.495 213.5,196.5C 215.767,193.729 218.267,191.062 221,188.5C 221.5,176.171 221.667,163.838 221.5,151.5C 193.165,151.667 164.831,151.5 136.5,151C 125.631,140.298 114.965,129.465 104.5,118.5C 148.33,117.501 192.33,117.168 236.5,117.5 Z"/></g>
<g><path style="opacity:1" fill="#00ff88" d="M 375.5,117.5 C 375.5,136.167 375.5,154.833 375.5,173.5C 364.5,173.5 353.5,173.5 342.5,173.5C 342.5,166.167 342.5,158.833 342.5,151.5C 328.833,151.5 315.167,151.5 301.5,151.5C 301.334,160.173 301.5,168.84 302,177.5C 326.961,198.125 351.627,219.125 376,240.5C 376.667,260.167 376.667,279.833 376,299.5C 369.633,306.366 363.133,313.033 356.5,319.5C 326.833,319.5 297.167,319.5 267.5,319.5C 267.5,298.5 267.5,277.5 267.5,256.5C 278.5,256.5 289.5,256.5 300.5,256.5C 301.494,265.986 301.827,275.652 301.5,285.5C 315.167,285.5 328.833,285.5 342.5,285.5C 342.666,275.828 342.5,266.161 342,256.5C 326.333,243.167 310.667,229.833 295,216.5C 294.667,209.833 294.333,203.167 294,196.5C 291.5,194 289,191.5 286.5,189C 279.842,188.5 273.175,188.334 266.5,188.5C 266.333,171.497 266.5,154.497 267,137.5C 273.532,131.302 279.699,124.802 285.5,118C 315.498,117.5 345.498,117.333 375.5,117.5 Z"/></g>
<g><path style="opacity:1" fill="#00ff88" d="M 93.5,120.5 C 95.3464,120.222 96.6798,120.889 97.5,122.5C 96.3112,123.429 94.9778,123.762 93.5,123.5C 93.5,122.5 93.5,121.5 93.5,120.5 Z"/></g>
<g><path style="opacity:1" fill="#00ff88" d="M 375.5,117.5 C 376.494,127.653 376.828,137.986 376.5,148.5C 376.5,157.167 376.5,165.833 376.5,174.5C 364.988,174.828 353.654,174.495 342.5,173.5C 353.5,173.5 364.5,173.5 375.5,173.5C 375.5,154.833 375.5,136.167 375.5,117.5 Z"/></g>
<g><path style="opacity:1" fill="#00ff88" d="M 397.5,149.5 C 399.167,149.5 400.833,149.5 402.5,149.5C 402.5,151.167 402.5,152.833 402.5,154.5C 400.833,154.5 399.167,154.5 397.5,154.5C 397.5,152.833 397.5,151.167 397.5,149.5 Z"/></g>
<g><path style="opacity:1" fill="#00ff88" d="M 112.5,136.5 C 111.503,153.659 111.17,170.992 111.5,188.5C 111.5,188.833 111.5,189.167 111.5,189.5C 110.173,171.662 110.173,153.662 111.5,135.5C 112.107,135.624 112.44,135.957 112.5,136.5 Z"/></g>
<g><path style="opacity:1" fill="#00ff88" d="M 112.5,136.5 C 113.167,137.5 113.833,138.5 114.5,139.5C 114.5,155.833 114.5,172.167 114.5,188.5C 113.5,188.5 112.5,188.5 111.5,188.5C 111.17,170.992 111.503,153.659 112.5,136.5 Z"/></g>
<g><path style="opacity:1" fill="#00ff88" d="M 114.5,139.5 C 115.497,155.992 115.83,172.658 115.5,189.5C 114.167,189.5 112.833,189.5 111.5,189.5C 111.5,189.167 111.5,188.833 111.5,188.5C 112.5,188.5 113.5,188.5 114.5,188.5C 114.5,172.167 114.5,155.833 114.5,139.5 Z"/></g>
<g><path style="opacity:1" fill="#00ff88" d="M 334.5,171.5 C 334.784,169.585 334.451,167.919 333.5,166.5C 333.783,165.711 334.283,165.044 335,164.5C 335.796,167.039 335.629,169.372 334.5,171.5 Z"/></g>
<g><path style="opacity:1" fill="#00ff88" d="M 121.5,168.5 C 122.5,168.5 123.5,168.5 124.5,168.5C 124.5,169.833 124.5,171.167 124.5,172.5C 123.5,172.5 122.5,172.5 121.5,172.5C 121.5,171.167 121.5,169.833 121.5,168.5 Z"/></g>
<g><path style="opacity:1" fill="#00ff88" d="M 425.5,176.5 C 427.5,176.5 429.5,176.5 431.5,176.5C 431.5,178.5 431.5,180.5 431.5,182.5C 429.5,182.5 427.5,182.5 425.5,182.5C 425.5,180.5 425.5,178.5 425.5,176.5 Z"/></g>
<g><path style="opacity:1" fill="#00ff88" d="M 90.5,177.5 C 92.337,177.639 92.6704,178.306 91.5,179.5C 90.7025,179.043 90.3691,178.376 90.5,177.5 Z"/></g>
<g><path style="opacity:1" fill="#00ff88" d="M 333.5,166.5 C 334.451,167.919 334.784,169.585 334.5,171.5C 330.868,176.467 326.868,181.133 322.5,185.5C 321.585,184.672 320.919,183.672 320.5,182.5C 324.887,177.123 329.22,171.79 333.5,166.5 Z"/></g>
<g><path style="opacity:1" fill="#00ff88" d="M 410.5,236.5 C 409.209,236.737 408.209,236.404 407.5,235.5C 407.5,199.167 407.5,162.833 407.5,126.5C 407.829,120.794 407.495,115.128 406.5,109.5C 401.833,107.5 397.167,105.5 392.5,103.5C 391.702,103.043 391.369,102.376 391.5,101.5C 391.866,100.305 392.699,99.6387 394,99.5C 399.558,101.696 405.058,104.029 410.5,106.5C 411.812,149.852 411.812,193.185 410.5,236.5 Z"/></g>
<g><path style="opacity:1" fill="#00ff88" d="M 337.5,181.5 C 338.5,181.5 339.5,181.5 340.5,181.5C 340.5,182.5 340.5,183.5 340.5,184.5C 339.5,184.5 338.5,184.5 337.5,184.5C 337.5,183.5 337.5,182.5 337.5,181.5 Z"/></g>
<g><path style="opacity:1" fill="#00ff88" d="M 187.5,164.5 C 194.148,172.429 200.815,180.429 207.5,188.5C 204.433,190.052 201.933,189.385 200,186.5C 196.38,181.211 192.38,176.211 188,171.5C 187.503,169.19 187.337,166.857 187.5,164.5 Z"/></g>
<g><path style="opacity:1" fill="#00ff88" d="M 188.5,185.5 C 189.833,185.5 191.167,185.5 192.5,185.5C 192.5,186.833 192.5,188.167 192.5,189.5C 189.5,189.833 188.167,188.5 188.5,185.5 Z"/></g>
<g><path style="opacity:1" fill="#00ff88" d="M 101.5,190.5 C 102.5,190.5 103.5,190.5 104.5,190.5C 104.5,191.5 104.5,192.5 104.5,193.5C 103.5,193.5 102.5,193.5 101.5,193.5C 101.5,192.5 101.5,191.5 101.5,190.5 Z"/></g>
<g><path style="opacity:1" fill="#00ff88" d="M 392.5,129.5 C 392.5,163.5 392.5,197.5 392.5,231.5C 390.712,231.785 389.045,231.452 387.5,230.5C 388.493,197.877 388.826,165.21 388.5,132.5C 387.167,132.5 385.833,132.5 384.5,132.5C 383.699,130.958 383.366,129.292 383.5,127.5C 386.426,128.461 389.426,129.127 392.5,129.5 Z"/></g>
<g><path style="opacity:1" fill="#00ff88" d="M 179.5,162.5 C 180.495,173.654 180.828,184.988 180.5,196.5C 191.5,196.5 202.5,196.5 213.5,196.5C 202.346,197.495 191.012,197.828 179.5,197.5C 179.5,185.833 179.5,174.167 179.5,162.5 Z"/></g>
<g><path style="opacity:1" fill="#00ff88" d="M 365.5,190.5 C 374.549,190.701 377.215,194.868 373.5,203C 367.382,205.774 363.382,203.941 361.5,197.5C 362.071,194.687 363.404,192.354 365.5,190.5 Z"/></g>
<g><path style="opacity:1" fill="transparent" d="M 367.5,194.5 C 371.35,194.701 372.35,196.534 370.5,200C 366.537,200.118 365.537,198.284 367.5,194.5 Z"/></g>
<g><path style="opacity:1" fill="#00ff88" d="M 122.5,202.5 C 124.465,202.948 124.798,203.948 123.5,205.5C 122.614,204.675 122.281,203.675 122.5,202.5 Z"/></g>
<g><path style="opacity:1" fill="#00ff88" d="M 131.5,156.5 C 130.503,178.994 130.169,201.661 130.5,224.5C 129.171,201.663 129.171,178.663 130.5,155.5C 131.107,155.624 131.44,155.957 131.5,156.5 Z"/></g>
<g><path style="opacity:1" fill="#00ff88" d="M 247.5,209.5 C 249.167,209.5 250.833,209.5 252.5,209.5C 252.5,210.5 252.5,211.5 252.5,212.5C 248.595,213.582 244.929,215.249 241.5,217.5C 244.671,219.07 248.004,220.57 251.5,222C 252.337,223.011 252.67,224.178 252.5,225.5C 247.375,222.937 242.042,220.937 236.5,219.5C 236.5,218.167 236.5,216.833 236.5,215.5C 240.972,214.768 244.638,212.768 247.5,209.5 Z"/></g>
<g><path style="opacity:1" fill="#00ff88" d="M 270.5,209.5 C 275.5,211.5 280.5,213.5 285.5,215.5C 285.5,216.833 285.5,218.167 285.5,219.5C 280.526,221.493 275.526,223.493 270.5,225.5C 270.5,224.5 270.5,223.5 270.5,222.5C 273.664,220.591 276.997,218.757 280.5,217C 277.289,215.199 273.956,213.699 270.5,212.5C 270.5,211.5 270.5,210.5 270.5,209.5 Z"/></g>
<g><path style="opacity:1" fill="#00ff88" d="M 372.5,214.5 C 374.337,214.639 374.67,215.306 373.5,216.5C 372.702,216.043 372.369,215.376 372.5,214.5 Z"/></g>
<g><path style="opacity:1" fill="#00ff88" d="M 263.5,204.5 C 264.5,204.5 265.5,204.5 266.5,204.5C 263.992,212.859 261.325,221.192 258.5,229.5C 257.5,229.5 256.5,229.5 255.5,229.5C 258.011,221.126 260.677,212.793 263.5,204.5 Z"/></g>
<g><path style="opacity:1" fill="#00ff88" d="M 131.5,156.5 C 132.15,156.804 132.817,157.137 133.5,157.5C 134.333,181.16 134.833,204.826 135,228.5C 135.582,233.655 136.749,238.655 138.5,243.5C 138.81,246.713 138.477,249.713 137.5,252.5C 133.908,243.466 131.575,234.133 130.5,224.5C 130.169,201.661 130.503,178.994 131.5,156.5 Z"/></g>
<g><path style="opacity:1" fill="#00ff88" d="M 295.5,227.5 C 297.09,227.628 298.423,228.295 299.5,229.5C 296.167,233.833 292.833,238.167 289.5,242.5C 290.982,244.483 292.649,246.316 294.5,248C 289.07,248.785 285.07,246.618 282.5,241.5C 288.947,238.722 293.28,234.056 295.5,227.5 Z"/></g>
<g><path style="opacity:1" fill="#00ff88" d="M 407.5,235.5 C 408.209,236.404 409.209,236.737 410.5,236.5C 418.167,236.5 425.833,236.5 433.5,236.5C 433.5,237.833 433.5,239.167 433.5,240.5C 425.5,240.5 417.5,240.5 409.5,240.5C 404.428,260.643 396.094,279.31 384.5,296.5C 383.532,294.393 383.198,292.059 383.5,289.5C 393.513,274.802 400.846,258.802 405.5,241.5C 404.311,240.571 402.978,240.238 401.5,240.5C 401.5,239.167 401.5,237.833 401.5,236.5C 403.621,236.675 405.621,236.341 407.5,235.5 Z"/></g>
<g><path style="opacity:1" fill="#00ff88" d="M 382.5,236.5 C 386.833,236.5 391.167,236.5 395.5,236.5C 395.5,237.833 395.5,239.167 395.5,240.5C 391.486,240.666 387.486,240.499 383.5,240C 382.663,238.989 382.33,237.822 382.5,236.5 Z"/></g>
<g><path style="opacity:1" fill="transparent" d="M 180.5,231.5 C 191.172,231.333 201.839,231.5 212.5,232C 215.333,234.833 218.167,237.667 221,240.5C 221.5,255.496 221.667,270.496 221.5,285.5C 207.833,285.5 194.167,285.5 180.5,285.5C 180.5,267.5 180.5,249.5 180.5,231.5 Z"/></g>
<g><path style="opacity:1" fill="#00ff88" d="M 308.5,243.5 C 309.5,243.5 310.5,243.5 311.5,243.5C 311.5,244.5 311.5,245.5 311.5,246.5C 310.5,246.5 309.5,246.5 308.5,246.5C 308.5,245.5 308.5,244.5 308.5,243.5 Z"/></g>
<g><path style="opacity:1" fill="#00ff88" d="M 266.5,240.5 C 270.472,241.949 273.806,244.449 276.5,248C 271.036,248.372 267.702,245.872 266.5,240.5 Z"/></g>
<g><path style="opacity:1" fill="#00ff88" d="M 384.5,254.5 C 383.527,252.052 383.194,249.385 383.5,246.5C 384.946,245.387 386.613,245.22 388.5,246C 386.754,248.659 385.42,251.492 384.5,254.5 Z"/></g>
<g><path style="opacity:1" fill="#00ff88" d="M 383.5,246.5 C 383.194,249.385 383.527,252.052 384.5,254.5C 384.217,255.289 383.717,255.956 383,256.5C 382.192,252.973 382.359,249.64 383.5,246.5 Z"/></g>
<g><path style="opacity:1" fill="#00ff88" d="M 440.5,247.5 C 440.5,248.167 440.5,248.833 440.5,249.5C 415.167,248.833 415.167,248.167 440.5,247.5 Z"/></g>
<g><path style="opacity:1" fill="#00ff88" d="M 414.5,247.5 C 417.957,247.667 418.29,248.667 415.5,250.5C 414.614,249.675 414.281,248.675 414.5,247.5 Z"/></g>
<g><path style="opacity:1" fill="#00ff88" d="M 440.5,247.5 C 415.167,248.167 415.167,248.833 440.5,249.5C 434.021,250.491 427.354,250.824 420.5,250.5C 420.5,249.167 420.5,247.833 420.5,246.5C 427.354,246.176 434.021,246.509 440.5,247.5 Z"/></g>
<g><path style="opacity:1" fill="#00ff88" d="M 138.5,243.5 C 139.808,247.019 139.808,250.685 138.5,254.5C 137.702,254.043 137.369,253.376 137.5,252.5C 138.477,249.713 138.81,246.713 138.5,243.5 Z"/></g>
<g><path style="opacity:1" fill="#00ff88" d="M 138.5,287.5 C 138.806,290.385 138.473,293.052 137.5,295.5C 128.757,281.344 121.59,266.344 116,250.5C 114.031,243.956 112.697,237.29 112,230.5C 111.5,218.838 111.333,207.171 111.5,195.5C 112.833,195.5 114.167,195.5 115.5,195.5C 111.905,229.12 119.572,259.787 138.5,287.5 Z"/></g>
<g><path style="opacity:1" fill="#00ff88" d="M 409.5,256.5 C 415.833,256.5 422.167,256.5 428.5,256.5C 428.5,257.833 428.5,259.167 428.5,260.5C 422.167,260.5 415.833,260.5 409.5,260.5C 409.5,259.167 409.5,257.833 409.5,256.5 Z"/></g>
<g><path style="opacity:1" fill="#00ff88" d="M 199.5,248.5 C 209.82,248.411 212.154,252.578 206.5,261C 198.333,262.833 195.167,259.667 197,251.5C 198.045,250.627 198.878,249.627 199.5,248.5 Z"/></g>
<g><path style="opacity:1" fill="transparent" d="M 200.5,252.5 C 205.159,252.015 206.492,253.848 204.5,258C 200.266,258.267 198.933,256.434 200.5,252.5 Z"/></g>
<g><path style="opacity:1" fill="#00ff88" d="M 130.5,258.5 C 131.833,258.5 133.167,258.5 134.5,258.5C 134.5,259.833 134.5,261.167 134.5,262.5C 133.167,262.5 131.833,262.5 130.5,262.5C 130.5,261.167 130.5,259.833 130.5,258.5 Z"/></g>
<g><path style="opacity:1" fill="#00ff88" d="M 300.5,256.5 C 289.5,256.5 278.5,256.5 267.5,256.5C 267.5,277.5 267.5,298.5 267.5,319.5C 297.167,319.5 326.833,319.5 356.5,319.5C 327.338,320.498 298.005,320.831 268.5,320.5C 266.511,299.192 265.844,277.526 266.5,255.5C 278.012,255.172 289.346,255.505 300.5,256.5 Z"/></g>
<g><path style="opacity:1" fill="#00ff88" d="M 328.5,264.5 C 329.833,264.5 331.167,264.5 332.5,264.5C 332.5,265.833 332.5,267.167 332.5,268.5C 331.167,268.5 329.833,268.5 328.5,268.5C 328.5,267.167 328.5,265.833 328.5,264.5 Z"/></g>
<g><path style="opacity:1" fill="#00ff88" d="M 308.5,269.5 C 310.782,272.122 313.115,274.788 315.5,277.5C 313.305,278.769 311.139,278.769 309,277.5C 308.503,274.854 308.336,272.187 308.5,269.5 Z"/></g>
<g><path style="opacity:1" fill="#00ff88" d="M 138.5,287.5 C 139.803,290.355 139.803,293.355 138.5,296.5C 137.893,296.376 137.56,296.043 137.5,295.5C 138.473,293.052 138.806,290.385 138.5,287.5 Z"/></g>
<g><path style="opacity:1" fill="#00ff88" d="M 383.5,289.5 C 383.198,292.059 383.532,294.393 384.5,296.5C 384.44,297.043 384.107,297.376 383.5,297.5C 382.2,294.691 382.2,292.024 383.5,289.5 Z"/></g>
<g><path style="opacity:1" fill="#00ff88" d="M 109.5,309.5 C 111.465,309.948 111.798,310.948 110.5,312.5C 109.614,311.675 109.281,310.675 109.5,309.5 Z"/></g>
<g><path style="opacity:1" fill="#00ff88" d="M 255.5,311.5 C 258.583,314.028 259.749,317.362 259,321.5C 256.75,319.591 254.916,317.425 253.5,315C 253.862,313.566 254.528,312.399 255.5,311.5 Z"/></g>
<g><path style="opacity:1" fill="#00ff88" d="M 392.5,314.5 C 399.107,312.749 401.607,315.082 400,321.5C 392.424,324.423 389.924,322.089 392.5,314.5 Z"/></g>
<g><path style="opacity:1" fill="#00ff88" d="M 166.5,327.5 C 164.585,327.216 162.919,327.549 161.5,328.5C 160.957,328.44 160.624,328.107 160.5,327.5C 162.636,326.207 164.636,326.207 166.5,327.5 Z"/></g>
<g><path style="opacity:1" fill="#00ff88" d="M 131.5,322.5 C 138.193,322.685 141.026,326.019 140,332.5C 138.179,335.991 135.346,337.157 131.5,336C 127.876,333.839 126.709,330.672 128,326.5C 129.376,325.295 130.542,323.962 131.5,322.5 Z"/></g>
<g><path style="opacity:1" fill="transparent" d="M 132.5,326.5 C 136.35,326.701 137.35,328.534 135.5,332C 134.207,332.49 132.873,332.657 131.5,332.5C 131.325,330.379 131.659,328.379 132.5,326.5 Z"/></g>
<g><path style="opacity:1" fill="#00ff88" d="M 363.5,337.5 C 365.337,337.639 365.67,338.306 364.5,339.5C 363.702,339.043 363.369,338.376 363.5,337.5 Z"/></g>
<g><path style="opacity:1" fill="#00ff88" d="M 161.5,328.5 C 162.919,327.549 164.585,327.216 166.5,327.5C 171.063,333.57 176.229,339.236 182,344.5C 186,340.5 190,336.5 194,332.5C 194.779,330.094 193.946,328.427 191.5,327.5C 193.421,326.359 195.421,326.192 197.5,327C 199.451,330.09 201.951,332.59 205,334.5C 207.478,332.022 209.978,329.522 212.5,327C 214.259,326.202 215.926,326.369 217.5,327.5C 214.877,330.625 212.044,333.625 209,336.5C 208.583,339.284 209.75,341.284 212.5,342.5C 217.894,338.108 222.561,333.108 226.5,327.5C 228.484,326.306 230.484,326.306 232.5,327.5C 232.333,327.833 232.167,328.167 232,328.5C 226.25,333.745 221.083,339.412 216.5,345.5C 219.084,348.75 222.084,351.75 225.5,354.5C 235.653,344.848 245.653,335.014 255.5,325C 258.091,324.699 258.925,325.866 258,328.5C 248.124,338.042 238.624,347.875 229.5,358C 238.85,368.346 249.684,376.846 262,383.5C 273.857,376.147 284.69,367.48 294.5,357.5C 284.833,347.5 275.167,337.5 265.5,327.5C 266.723,326.386 268.056,326.219 269.5,327C 278.723,336.558 288.223,345.725 298,354.5C 301.016,351.651 303.85,348.651 306.5,345.5C 301.121,339.128 295.787,332.795 290.5,326.5C 291.873,326.343 293.207,326.51 294.5,327C 299.681,332.348 305.015,337.515 310.5,342.5C 312.167,341.5 313.5,340.167 314.5,338.5C 311.449,335.121 308.449,331.788 305.5,328.5C 306.568,327.566 307.901,327.232 309.5,327.5C 312.464,329.962 315.297,332.629 318,335.5C 320.833,332.667 323.667,329.833 326.5,327C 332.121,326.156 332.787,327.489 328.5,331C 332.682,335.349 337.015,339.515 341.5,343.5C 351.04,333.46 360.707,323.627 370.5,314C 371.167,313.333 371.833,313.333 372.5,314C 359.772,330.434 346.106,346.1 331.5,361C 336.153,366.322 340.82,371.655 345.5,377C 355.235,376.739 360.568,381.406 361.5,391C 358.906,402.799 351.906,406.466 340.5,402C 336.618,398.736 334.451,394.57 334,389.5C 329.054,383.932 323.888,378.599 318.5,373.5C 305.477,387.032 291.144,398.865 275.5,409C 270.948,411.443 266.282,413.61 261.5,415.5C 246,408.586 232,399.419 219.5,388C 214.652,382.985 209.652,378.152 204.5,373.5C 199.515,378.985 194.348,384.319 189,389.5C 186.464,403.018 178.964,406.852 166.5,401C 161.804,394.869 161.304,388.369 165,381.5C 168.443,378.126 172.61,376.293 177.5,376C 182.546,371.289 187.213,366.289 191.5,361C 181.279,350.282 171.279,339.449 161.5,328.5 Z"/></g>
<g><path style="opacity:1" fill="transparent" d="M 197.5,334.5 C 209.274,344.442 220.107,355.109 230,366.5C 228.833,367.667 227.667,368.833 226.5,370C 225.038,369.937 223.705,369.271 222.5,368C 212.986,358.319 203.319,348.819 193.5,339.5C 194.857,337.814 196.19,336.148 197.5,334.5 Z"/></g>
<g><path style="opacity:1" fill="#00ff88" d="M 259.5,333.5 C 260.822,333.33 261.989,333.663 263,334.5C 263.333,341.167 263.667,347.833 264,354.5C 268.327,357.083 269.494,360.749 267.5,365.5C 261.386,370.207 257.052,368.873 254.5,361.5C 254.988,358.526 256.488,356.193 259,354.5C 259.5,347.508 259.666,340.508 259.5,333.5 Z"/></g>
<g><path style="opacity:1" fill="transparent" d="M 259.5,358.5 C 264.159,358.015 265.492,359.848 263.5,364C 259.266,364.267 257.933,362.434 259.5,358.5 Z"/></g>
<g><path style="opacity:1" fill="transparent" d="M 332.5,342.5 C 335.648,343.474 337.481,345.474 338,348.5C 328.137,358.697 317.971,368.53 307.5,378C 304.352,378.06 302.019,376.56 300.5,373.5C 311.214,363.118 321.881,352.785 332.5,342.5 Z"/></g>
<g><path style="opacity:1" fill="#00ff88" d="M 246.5,351.5 C 247.5,351.5 248.5,351.5 249.5,351.5C 249.5,352.5 249.5,353.5 249.5,354.5C 248.5,354.5 247.5,354.5 246.5,354.5C 246.5,353.5 246.5,352.5 246.5,351.5 Z"/></g>
<g><path style="opacity:1" fill="transparent" d="M 189.5,342.5 C 200.443,352.272 211.276,362.272 222,372.5C 221.454,375.093 219.954,377.26 217.5,379C 216.833,379.667 216.167,379.667 215.5,379C 205.303,369.137 195.47,358.971 186,348.5C 185.333,347.833 185.333,347.167 186,346.5C 187.376,345.295 188.542,343.962 189.5,342.5 Z"/></g>
<g><path style="opacity:1" fill="transparent" d="M 324.5,334.5 C 327.859,334.698 329.692,336.365 330,339.5C 319.526,350.063 308.859,360.397 298,370.5C 295.705,368.92 294.372,366.92 294,364.5C 304.062,354.271 314.228,344.271 324.5,334.5 Z"/></g>
<g><path style="opacity:1" fill="#00ff88" d="M 309.5,327.5 C 307.901,327.232 306.568,327.566 305.5,328.5C 304.957,328.44 304.624,328.107 304.5,327.5C 306.299,326.212 307.965,326.212 309.5,327.5 Z"/></g>
<g><path style="opacity:1" fill="transparent" d="M 326.5,364.5 C 331.867,368.355 336.867,372.855 341.5,378C 339.333,380.167 337.167,382.333 335,384.5C 330.318,379.985 325.818,375.319 321.5,370.5C 323.19,368.481 324.856,366.481 326.5,364.5 Z"/></g>
<g><path style="opacity:1" fill="transparent" d="M 194.5,364.5 C 197.407,365.734 199.741,367.734 201.5,370.5C 197.167,375.5 192.5,380.167 187.5,384.5C 185.833,382.167 183.833,380.167 181.5,378.5C 185.855,373.813 190.188,369.146 194.5,364.5 Z"/></g>
<g><path style="opacity:1" fill="transparent" d="M 233.5,368.5 C 242.152,375.827 251.485,382.16 261.5,387.5C 265.855,385.975 269.855,383.808 273.5,381C 278.977,377.024 284.31,372.858 289.5,368.5C 294.54,372.539 298.873,377.206 302.5,382.5C 290.244,394.077 276.578,403.744 261.5,411.5C 245.598,404.194 232.098,394.194 221,381.5C 225.37,377.298 229.537,372.964 233.5,368.5 Z"/></g>
<g><path style="opacity:1" fill="#00ff88" d="M 285.5,381.5 C 290.159,381.015 291.492,382.848 289.5,387C 285.126,387.424 283.792,385.591 285.5,381.5 Z"/></g>
<g><path style="opacity:1" fill="#00ff88" d="M 234.5,382.5 C 237.91,382.384 239.244,384.05 238.5,387.5C 234.065,388.078 232.732,386.411 234.5,382.5 Z"/></g>
<g><path style="opacity:1" fill="transparent" d="M 171.5,381.5 C 180.443,380.611 184.61,384.611 184,393.5C 181.598,399.092 177.431,400.925 171.5,399C 169.333,398.167 167.833,396.667 167,394.5C 165.243,388.825 166.743,384.492 171.5,381.5 Z"/></g>
<g><path style="opacity:1" fill="transparent" d="M 343.5,381.5 C 352.998,380.173 357.498,384.173 357,393.5C 354.081,399.025 349.581,400.858 343.5,399C 336.944,392.962 336.944,387.129 343.5,381.5 Z"/></g>
<g><path style="opacity:1" fill="#00ff88" d="M 345.5,387.5 C 351.555,386.942 352.888,389.109 349.5,394C 344.791,394.082 343.458,391.915 345.5,387.5 Z"/></g>
<g><path style="opacity:1" fill="#00ff88" d="M 173.5,386.5 C 174.93,386.421 176.264,386.754 177.5,387.5C 179.708,394.133 177.875,395.8 172,392.5C 171.252,390.16 171.752,388.16 173.5,386.5 Z"/></g>
<g><path style="opacity:1" fill="#00ff88" d="M 339.5,414.5 C 341.465,414.948 341.798,415.948 340.5,417.5C 339.614,416.675 339.281,415.675 339.5,414.5 Z"/></g>
<g><path style="opacity:1" fill="#00ff88" d="M 199.5,417.5 C 203.31,418.754 203.31,419.754 199.5,420.5C 199.5,419.5 199.5,418.5 199.5,417.5 Z"/></g>
</svg>
