<svg xmlns="http://www.w3.org/2000/svg" viewBox="0 0 100 100" width="100" height="100">
  <defs>
    <filter id="glow" x="-30%" y="-30%" width="160%" height="160%">
      <feGaussianBlur stdDeviation="2" result="blur"/>
      <feMerge><feMergeNode in="blur"/><feMergeNode in="SourceGraphic"/></feMerge>
    </filter>
  </defs>
  <circle cx="50" cy="50" r="49" fill="#04090e"/>
  <polygon points="50,7 85,27.5 85,72.5 50,93 15,72.5 15,27.5" fill="rgba(0,255,136,0.06)" filter="url(#glow)"/>
  <polygon points="50,9 83,29 83,71 50,91 17,71 17,29" fill="#05101a" stroke="#00ff88" stroke-width="2" filter="url(#glow)"/>
  <polygon points="50,20 74,34 74,66 50,80 26,66 26,34" fill="#030c10" stroke="#00a854" stroke-width="1" opacity="0.7"/>
  <rect x="32" y="32" width="36" height="36" rx="2" fill="#001e14" stroke="#00ff88" stroke-width="1.5" filter="url(#glow)"/>
  <line x1="38" y1="50" x2="62" y2="50" stroke="#00b864" stroke-width="1" opacity="0.8"/>
  <line x1="50" y1="38" x2="50" y2="62" stroke="#00b864" stroke-width="1" opacity="0.8"/>
  <rect x="36" y="36" width="6" height="6" fill="#00ff88"/>
  <rect x="58" y="36" width="6" height="6" fill="#00ff88"/>
  <rect x="36" y="58" width="6" height="6" fill="#00ff88"/>
  <rect x="58" y="58" width="6" height="6" fill="#00ff88"/>
  <line x1="44" y1="32" x2="44" y2="25" stroke="#00b864" stroke-width="1.5" opacity="0.7"/>
  <line x1="56" y1="32" x2="56" y2="25" stroke="#00b864" stroke-width="1.5" opacity="0.7"/>
  <line x1="44" y1="68" x2="44" y2="75" stroke="#00b864" stroke-width="1.5" opacity="0.7"/>
  <line x1="56" y1="68" x2="56" y2="75" stroke="#00b864" stroke-width="1.5" opacity="0.7"/>
  <line x1="32" y1="44" x2="25" y2="44" stroke="#00b864" stroke-width="1.5" opacity="0.7"/>
  <line x1="32" y1="56" x2="25" y2="56" stroke="#00b864" stroke-width="1.5" opacity="0.7"/>
  <line x1="68" y1="44" x2="75" y2="44" stroke="#00b864" stroke-width="1.5" opacity="0.7"/>
  <line x1="68" y1="56" x2="75" y2="56" stroke="#00b864" stroke-width="1.5" opacity="0.7"/>
</svg>
